<svg width="20" height="20" viewBox="0 0 30 30" fill="none" xmlns="http://www.w3.org/2000/svg">
	<path d="M17.2447 27.2816L15.7583 28.768C15.1289 29.3974 14.1111 29.3974 13.4885 28.768L0.472046 15.7583C-0.157349 15.1289 -0.157349 14.1111 0.472046 13.4885L13.4885 0.472046C14.1178 -0.157349 15.1356 -0.157349 15.7583 0.472046L17.2447 1.95849C17.8808 2.59458 17.8674 3.63241 17.2179 4.25511L9.14965 11.9417H28.393C29.2836 11.9417 30 12.6582 30 13.5487V15.6913C30 16.5819 29.2836 17.2983 28.393 17.2983H9.14965L17.2179 24.9849C17.8741 25.6076 17.8875 26.6455 17.2447 27.2816Z" fill="#677094" />
</svg>
