<svg xmlns="http://www.w3.org/2000/svg" viewBox="0 0 382.1137 145.1477"><path d="M239.4106,247.1938V231.8931H219.91v15.3007h-4.15v-33.352h4.15v14.3511h19.5009V213.8418h4.15v33.352Z" transform="translate(-56.1939 -177.3676)" fill="#eed132" stroke="#eed132" stroke-miterlimit="10" stroke-width="2"/><path d="M267.56,247.1938v-2.75a10.3736,10.3736,0,0,1-8.001,3.35c-4.05,0-8.4-2.75-8.4-8,0-5.45,4.3-7.9507,8.4-7.9507a10.2287,10.2287,0,0,1,8.001,3.25v-4.3506c0-3.2-2.6006-5.05-6.1006-5.05a9.4285,9.4285,0,0,0-7.4,3.3506l-1.75-2.6006a12.6411,12.6411,0,0,1,9.65-4c5.15,0,9.3506,2.3,9.3506,8.15v16.601Zm0-5.1v-4.6006a8.1627,8.1627,0,0,0-6.6006-2.95c-3.5508,0-6.001,2.2-6.001,5.25,0,3.1,2.45,5.3,6.001,5.3A8.0577,8.0577,0,0,0,267.56,242.0938Z" transform="translate(-56.1939 -177.3676)" fill="#eed132" stroke="#eed132" stroke-miterlimit="10" stroke-width="2"/><path d="M278.959,247.1938v-2.95L292.26,226.3428H278.959v-3.3h18.2v2.85l-13.4,18.001h13.6006v3.3Z" transform="translate(-56.1939 -177.3676)" fill="#eed132" stroke="#eed132" stroke-miterlimit="10" stroke-width="2"/><path d="M303.7568,230.543c0-10.4009,7.65-17.251,17.1514-17.251a15.8612,15.8612,0,0,1,12.9512,6.2l-3.3008,2.1a12.298,12.298,0,0,0-9.65-4.6c-7.3008,0-12.8506,5.55-12.8506,13.5508,0,7.9,5.55,13.5508,12.8506,13.5508a13.1734,13.1734,0,0,0,9.001-3.6v-6.75h-11.501v-3.7h15.6006v12a17.2347,17.2347,0,0,1-13.1006,5.8C311.4072,247.8438,303.7568,240.8936,303.7568,230.543Z" transform="translate(-56.1939 -177.3676)" fill="#eed132" stroke="#eed132" stroke-miterlimit="10" stroke-width="2"/><path d="M358.1582,247.1938v-3.4a11.8118,11.8118,0,0,1-8.6,4c-5.0508,0-7.7012-2.5-7.7012-7.7006V223.0425h3.75v15.9009c0,4.25,2.15,5.5,5.4512,5.5a9.2173,9.2173,0,0,0,7.1-3.65v-17.751h3.751v24.1513Z" transform="translate(-56.1939 -177.3676)" fill="#eed132" stroke="#eed132" stroke-miterlimit="10" stroke-width="2"/><path d="M385.7588,247.1938v-2.75a10.3736,10.3736,0,0,1-8.001,3.35c-4.05,0-8.4-2.75-8.4-8,0-5.45,4.3-7.9507,8.4-7.9507a10.2287,10.2287,0,0,1,8.001,3.25v-4.3506c0-3.2-2.6006-5.05-6.1006-5.05a9.4285,9.4285,0,0,0-7.4,3.3506l-1.75-2.6006a12.6411,12.6411,0,0,1,9.65-4c5.15,0,9.3506,2.3,9.3506,8.15v16.601Zm0-5.1v-4.6006a8.1627,8.1627,0,0,0-6.6006-2.95c-3.5508,0-6.001,2.2-6.001,5.25,0,3.1,2.45,5.3,6.001,5.3A8.0577,8.0577,0,0,0,385.7588,242.0938Z" transform="translate(-56.1939 -177.3676)" fill="#eed132" stroke="#eed132" stroke-miterlimit="10" stroke-width="2"/><path d="M398.3066,247.1938V223.0425h3.75v3.85a10.4094,10.4094,0,0,1,8.0508-4.4v3.8506a12.3139,12.3139,0,0,0-1.45-.1,8.8449,8.8449,0,0,0-6.6006,3.85v17.101Z" transform="translate(-56.1939 -177.3676)" fill="#eed132" stroke="#eed132" stroke-miterlimit="10" stroke-width="2"/><path d="M433.5566,247.1938v-3.6a10.1669,10.1669,0,0,1-8.15,4.2c-6.3,0-10.75-4.8-10.75-12.6508,0-7.7505,4.45-12.7007,10.75-12.7007a10.098,10.098,0,0,1,8.15,4.25V213.8418h3.751v33.352Zm0-6.6005v-10.9a8.971,8.971,0,0,0-7.2-3.9c-4.9,0-7.8007,4.0005-7.8007,9.3506s2.9,9.3007,7.8007,9.3007A8.9286,8.9286,0,0,0,433.5566,240.5933Z" transform="translate(-56.1939 -177.3676)" fill="#eed132" stroke="#eed132" stroke-miterlimit="10" stroke-width="2"/><path d="M117.5531,179c35.7338,15.3416,59.8552,16.4119,59.8552,16.4119,0,22.1207,0,54.9449-12.5066,87.769S117.5531,321,117.5531,321,82.7084,316.0052,70.2,283.1809c-12.5059-32.8241-12.5059-65.6483-12.5059-87.769C57.6939,195.4119,81.815,194.3416,117.5531,179Z" transform="translate(-56.1939 -177.3676)" fill="none" stroke="#eed132" stroke-miterlimit="10" stroke-width="3" style="isolation:isolate"/><path d="M168.7911,224h-10.39v1.83h1.06l-1.45,47.64a1.5092,1.5092,0,0,0-.88,1.38v1.51h-7.45v-1.51a1.5092,1.5092,0,0,0-.88-1.38l-1.45-47.64h1.06V224h-2.15a3.22,3.22,0,0,0,.45-5.66,4.79,4.79,0,0,0,.18-1.26,4.8387,4.8387,0,0,0-4.9-4.78c-.07,0-.14.01-.21.01a2.55,2.55,0,0,0-1.84-.88c0-.04.01-.08.01-.12a3.9679,3.9679,0,0,0-4.02-3.92,4.1085,4.1085,0,0,0-2.2.64,3.421,3.421,0,0,0-2.36-.95,2.9571,2.9571,0,0,0-.52.05,5.0549,5.0549,0,0,0-5.02-4.13,5.1315,5.1315,0,0,0-3.71,1.58,8.3791,8.3791,0,0,0-11.47,1.63,7.87,7.87,0,0,0-1.38-.13,7.13,7.13,0,0,0-4.25,1.38,4.4631,4.4631,0,0,0-6.4,1.24,2.5729,2.5729,0,0,0-1.9-.84,2.6143,2.6143,0,0,0-.69.1c0-.04.01-.07.01-.1a2.2005,2.2005,0,0,0-4.4,0,2.1513,2.1513,0,0,0,.13.73,2.2114,2.2114,0,0,0,.64,4.16,4.526,4.526,0,0,0-.74,2.49,4.7277,4.7277,0,0,0,4.79,4.67,4.8106,4.8106,0,0,0,2.96-1.01,6.2865,6.2865,0,0,0,6.13,4.71,6.3648,6.3648,0,0,0,3.66-1.15,5.8041,5.8041,0,0,0,2.17.99,10.2033,10.2033,0,0,0,16.85-1.4h.19a3.4782,3.4782,0,0,0,3.02-1.71,4.4,4.4,0,0,0,3.34,1.51,4.3331,4.3331,0,0,0,1.57-.29,5.3486,5.3486,0,0,0,3.15,1.03,5.114,5.114,0,0,0,.56-.03,3.2,3.2,0,0,0-.08.7,3,3,0,0,0,.09.74h-2.05v1.83h1.06l-1.45,47.64a1.5093,1.5093,0,0,0-.88,1.38v1.51h-12.95a2.2811,2.2811,0,0,0-2.29,2.28V299.6h-7.92V279.96h-7.31v-10.9l-19.2,4.84v6.06h-9.74a1.5043,1.5043,0,0,0-1.03-1.43l-1.92-.64h3.01a.88.88,0,0,0,0-1.76h-.06v-2.3a1.4918,1.4918,0,0,0-1.03-1.42l-1.92-.64h2.98a.9011.9011,0,0,0,.89-.71.8809.8809,0,0,0-.86-1.06h-.06v-2.29a1.5043,1.5043,0,0,0-1.03-1.43l-1.92-.64h3.01a.885.885,0,0,0,0-1.77h-.06v-2.29a1.4918,1.4918,0,0,0-1.03-1.42l-1.92-.64h3.01a.885.885,0,0,0,0-1.77h-.06v-2.29a1.5043,1.5043,0,0,0-1.03-1.43l-1.92-.64h3.01a.885.885,0,0,0,0-1.77h-.06v-1.01a1.5236,1.5236,0,0,0-1.53-1.53h-2.95a1.5236,1.5236,0,0,0-1.53,1.53v1.01h-.06a.885.885,0,0,0,0,1.77h.06v4.36h-.06a.885.885,0,0,0,0,1.77h.06v4.35h-.06a.885.885,0,0,0,0,1.77h.06V270h-.02a.9169.9169,0,0,0-.77.4.8525.8525,0,0,0-.13.31.8765.8765,0,0,0,.53.99.7245.7245,0,0,0,.33.07h.06v1.19c.91,2.88,1.9,5.76,3,8.64,9.45,24.78,32.42,32.4,40.78,34.4h4.88c7.19-1.72,25.22-7.61,36.12-25.02h-.59V286.4h3.16q1.125-2.28,2.09-4.79a169.1538,169.1538,0,0,0,7.82-27.65l-.86-28.13h1.06Zm-47.28,85.48h-7.92v-1.77h7.92Zm0-3.25h-7.92V304.4h7.92Zm0-3.32h-7.92v-1.82h7.92Zm19.02-11.93h-8.8V286.4h8.8Z" transform="translate(-56.1939 -177.3676)" fill="#272343"/><path d="M62.1217,199.4506c.0421,21.4644.7368,52.0324,12.213,82.1527,10.6522,27.9532,38.5459,34.071,43.2179,34.91,4.6714-.8385,32.5618-6.9563,43.2136-34.909,11.4772-30.1208,12.172-60.6888,12.2144-82.1532-8.3336-.9553-28.4581-4.31-55.428-15.6634C90.58,195.1406,70.4548,198.4953,62.1217,199.4506Z" transform="translate(-56.1939 -177.3676)" fill="none" stroke="#eed132" stroke-miterlimit="10" style="isolation:isolate"/><path d="M214.3433,285.7109l1.4248-1.8242a7.8421,7.8421,0,0,0,5.958,2.7363c3.3916,0,4.4746-1.8242,4.4746-3.3066,0-4.9023-11.2588-2.166-11.2588-8.9492,0-3.1358,2.793-5.3018,6.5557-5.3018a8.9327,8.9327,0,0,1,6.7265,2.6787l-1.4248,1.7393a7.1708,7.1708,0,0,0-5.501-2.28c-2.2519,0-3.9052,1.2256-3.9052,3.0215,0,4.2754,11.2588,1.8242,11.2588,8.9209,0,2.7363-1.8809,5.5869-7.0118,5.5869A9.4576,9.4576,0,0,1,214.3433,285.7109Z" transform="translate(-56.1939 -177.3676)" fill="#272343"/><path d="M240.7075,288.3906v-1.5683a5.9119,5.9119,0,0,1-4.5605,1.91,4.5771,4.5771,0,0,1-4.7891-4.56c0-3.1065,2.4512-4.5323,4.7891-4.5323a5.8319,5.8319,0,0,1,4.5605,1.8526v-2.48c0-1.8242-1.4824-2.8789-3.4775-2.8789a5.3763,5.3763,0,0,0-4.2188,1.91l-.997-1.4824a7.2055,7.2055,0,0,1,5.5009-2.28c2.9356,0,5.33,1.3116,5.33,4.6465v9.4629Zm0-2.9072V282.86a4.654,4.654,0,0,0-3.7627-1.6817c-2.0234,0-3.4209,1.2549-3.4209,2.9932,0,1.7676,1.3975,3.0215,3.4209,3.0215A4.5945,4.5945,0,0,0,240.7075,285.4834Z" transform="translate(-56.1939 -177.3676)" fill="#272343"/><path d="M247.7456,288.3906V276.5049h-2.28V274.623h2.28v-1.0546c0-2.8213,1.5674-4.4746,3.99-4.4746a3.9617,3.9617,0,0,1,2.9072,1.0546l-.8828,1.3682a2.4721,2.4721,0,0,0-1.6817-.6562c-1.4253,0-2.1948.9414-2.1948,2.708v1.0546h2.7925v1.8819h-2.7925v11.8857Z" transform="translate(-56.1939 -177.3676)" fill="#272343"/><path d="M254.4424,281.4922c0-3.99,2.8506-7.211,6.7832-7.211,4.1621,0,6.6133,3.2491,6.6133,7.3829v.541H256.7227a4.8256,4.8256,0,0,0,4.9306,4.76,5.991,5.991,0,0,0,4.2754-1.7666l1.0264,1.3965a7.5913,7.5913,0,0,1-5.4727,2.1377C257.3779,288.7324,254.4424,285.7969,254.4424,281.4922Zm6.7549-5.4434a4.5862,4.5862,0,0,0-4.503,4.5606H265.73A4.4554,4.4554,0,0,0,261.1973,276.0488Z" transform="translate(-56.1939 -177.3676)" fill="#272343"/><path d="M271.2852,288.3906V274.623h2.1377v2.1954a5.931,5.931,0,0,1,4.5888-2.5088v2.1953a6.867,6.867,0,0,0-.8262-.0576,5.0392,5.0392,0,0,0-3.7626,2.1953v9.748Z" transform="translate(-56.1939 -177.3676)" fill="#272343"/><path d="M302.6934,288.3906l-4.19-15.3349-4.19,15.3349H291.748l-5.415-19.0117h2.6221l4.2187,15.8477,4.36-15.8477h1.9668l4.3613,15.8477,4.19-15.8477h2.65l-5.4443,19.0117Z" transform="translate(-56.1939 -177.3676)" fill="#272343"/><path d="M311.2988,281.4922c0-3.99,2.6221-7.211,6.8125-7.211s6.8116,3.2208,6.8116,7.211-2.6221,7.24-6.8116,7.24S311.2988,285.4834,311.2988,281.4922Zm11.3731,0c0-2.793-1.625-5.3008-4.5606-5.3008s-4.5605,2.5078-4.5605,5.3008c0,2.8223,1.624,5.33,4.5605,5.33S322.6719,284.3145,322.6719,281.4922Z" transform="translate(-56.1939 -177.3676)" fill="#272343"/><path d="M328.3984,288.3906V274.623h2.1377v2.1954a5.9312,5.9312,0,0,1,4.5889-2.5088v2.1953a6.8685,6.8685,0,0,0-.8262-.0576,5.04,5.04,0,0,0-3.7627,2.1953v9.748Z" transform="translate(-56.1939 -177.3676)" fill="#272343"/><path d="M347.1807,288.3906l-4.9317-6.1855L339.94,284.457v3.9336h-2.1377V269.3789H339.94v12.5693l7.24-7.3252h2.708l-6.1006,6.2422,6.1289,7.5254Z" transform="translate(-56.1939 -177.3676)" fill="#272343"/><path d="M354.59,286.31v7.3252h-2.1377V274.623H354.59v2.0528a5.7567,5.7567,0,0,1,4.6465-2.3946c3.6192,0,6.128,2.7364,6.128,7.211,0,4.4473-2.5088,7.24-6.128,7.24A5.7566,5.7566,0,0,1,354.59,286.31Zm8.5225-4.8174c0-3.05-1.6533-5.3008-4.418-5.3008a5.09,5.09,0,0,0-4.1045,2.1943V284.6a5.1137,5.1137,0,0,0,4.1045,2.2227C361.459,286.8223,363.1123,284.542,363.1123,281.4922Z" transform="translate(-56.1939 -177.3676)" fill="#272343"/><path d="M368.7539,288.3906V269.3789h2.1377v19.0117Z" transform="translate(-56.1939 -177.3676)" fill="#272343"/><path d="M383.7744,288.3906v-1.5683a5.9119,5.9119,0,0,1-4.56,1.91,4.5766,4.5766,0,0,1-4.7891-4.56c0-3.1065,2.4512-4.5323,4.7891-4.5323a5.8319,5.8319,0,0,1,4.56,1.8526v-2.48c0-1.8242-1.4824-2.8789-3.4775-2.8789a5.3763,5.3763,0,0,0-4.2188,1.91l-.998-1.4824a7.2091,7.2091,0,0,1,5.5019-2.28c2.9356,0,5.33,1.3116,5.33,4.6465v9.4629Zm0-2.9072V282.86a4.654,4.654,0,0,0-3.7627-1.6817c-2.0234,0-3.4209,1.2549-3.4209,2.9932,0,1.7676,1.3975,3.0215,3.4209,3.0215A4.5945,4.5945,0,0,0,383.7744,285.4834Z" transform="translate(-56.1939 -177.3676)" fill="#272343"/><path d="M389.416,281.4922c0-4.0752,2.7647-7.211,6.8692-7.211a5.8931,5.8931,0,0,1,5.0449,2.3946l-1.4248,1.2822a4.056,4.056,0,0,0-3.5059-1.7666c-2.9072,0-4.7607,2.251-4.7607,5.3008s1.8535,5.33,4.7607,5.33a4.151,4.151,0,0,0,3.5059-1.795l1.4248,1.3106a5.893,5.893,0,0,1-5.0449,2.3945C392.1807,288.7324,389.416,285.5684,389.416,281.4922Z" transform="translate(-56.1939 -177.3676)" fill="#272343"/><path d="M403.5518,281.4922c0-3.99,2.8505-7.211,6.7832-7.211,4.1621,0,6.6132,3.2491,6.6132,7.3829v.541H405.832a4.8256,4.8256,0,0,0,4.9307,4.76,5.991,5.991,0,0,0,4.2754-1.7666l1.0264,1.3965a7.5914,7.5914,0,0,1-5.4727,2.1377C406.4873,288.7324,403.5518,285.7969,403.5518,281.4922Zm6.7548-5.4434a4.5862,4.5862,0,0,0-4.5029,4.5606h9.0352A4.4555,4.4555,0,0,0,410.3066,276.0488Z" transform="translate(-56.1939 -177.3676)" fill="#272343"/><path d="M419.2256,286.5664l1.083-1.5391a6.2386,6.2386,0,0,0,4.5322,1.9668c2.1094,0,3.2783-.998,3.2783-2.3662,0-3.3349-8.5224-1.2822-8.5224-6.3847,0-2.1661,1.8242-3.962,5.1015-3.962a6.87,6.87,0,0,1,5.1026,1.9952l-.9981,1.4824a5.3157,5.3157,0,0,0-4.1045-1.7393c-1.8808,0-3.05.9414-3.05,2.167,0,2.9922,8.5225,1.0254,8.5225,6.3848,0,2.3086-1.8525,4.1611-5.3867,4.1611A7.39,7.39,0,0,1,419.2256,286.5664Z" transform="translate(-56.1939 -177.3676)" fill="#272343"/><path d="M433.22,287.1074a1.5679,1.5679,0,1,1,1.5684,1.5684A1.5821,1.5821,0,0,1,433.22,287.1074Z" transform="translate(-56.1939 -177.3676)" fill="#272343"/></svg>