<svg xmlns="http://www.w3.org/2000/svg" viewBox="0 0 122.71443 145.14772">
	<path d="M61.35915,1.63238c35.73386,15.34157,59.85528,16.4119,59.85528,16.4119,0,22.12073,0,54.94486-12.50667,87.769-12.50731,32.82432-47.34861,37.81911-47.34861,37.81911s-34.84471-4.99479-47.3533-37.81911C1.5,72.98914,1.5,40.165,1.5,18.04428,1.5,18.04428,25.62108,16.97395,61.35915,1.63238Z" fill="none" stroke="#eed132" stroke-miterlimit="10" stroke-width="3" style="isolation:isolate" />
	<path d="M112.5972,46.63238h-10.39v1.83h1.06l-1.45,47.64a1.50932,1.50932,0,0,0-.88,1.38v1.51h-7.45v-1.51a1.50932,1.50932,0,0,0-.88-1.38l-1.45-47.64h1.06v-1.83h-2.15a3.22026,3.22026,0,0,0,.45-5.66,4.747,4.747,0,0,0-4.72-6.04c-.07,0-.14.01-.21.01a2.55009,2.55009,0,0,0-1.84-.88c0-.04.01-.08.01-.12a3.96785,3.96785,0,0,0-4.02-3.92,4.10887,4.10887,0,0,0-2.2.63995,3.42119,3.42119,0,0,0-2.36-.95,2.95435,2.95435,0,0,0-.52.05,5.05485,5.05485,0,0,0-5.02-4.13,5.13149,5.13149,0,0,0-3.71,1.58,8.37926,8.37926,0,0,0-11.47,1.63,7.87487,7.87487,0,0,0-1.38-.13,7.12993,7.12993,0,0,0-4.25,1.38,4.46311,4.46311,0,0,0-6.4,1.24006,2.573,2.573,0,0,0-1.9-.84,2.61509,2.61509,0,0,0-.69.1c0-.04.01-.06994.01-.1a2.20056,2.20056,0,0,0-4.4,0,2.15224,2.15224,0,0,0,.12994.73,2.21141,2.21141,0,0,0,.64,4.16,4.52614,4.52614,0,0,0-.74,2.49,4.72769,4.72769,0,0,0,4.79,4.67,4.8108,4.8108,0,0,0,2.96-1.01,6.28639,6.28639,0,0,0,6.13,4.71,6.36437,6.36437,0,0,0,3.66-1.15,5.80443,5.80443,0,0,0,2.17.99006,10.20335,10.20335,0,0,0,16.85-1.4h.19a3.47826,3.47826,0,0,0,3.02-1.71,4.4005,4.4005,0,0,0,3.34,1.51,4.33326,4.33326,0,0,0,1.57-.29,5.34829,5.34829,0,0,0,3.15,1.03,5.1251,5.1251,0,0,0,.56-.03,3.195,3.195,0,0,0-.08.7,3.00058,3.00058,0,0,0,.09.74h-2.05v1.83h1.06006l-1.45,47.64a1.50931,1.50931,0,0,0-.88,1.38v1.51h-12.95a2.28113,2.28113,0,0,0-2.29,2.28v20.96h-7.92v-19.64h-7.31v-10.9l-19.19995,4.84v6.06h-9.74a1.50431,1.50431,0,0,0-1.03-1.43l-1.92-.63995h3.01a.88.88,0,0,0,0-1.76h-.06v-2.3a1.49183,1.49183,0,0,0-1.03-1.42l-1.92-.64h2.98a.901.901,0,0,0,.89-.71.88077.88077,0,0,0-.86005-1.06h-.06v-2.29a1.50431,1.50431,0,0,0-1.03-1.43l-1.92-.63995h3.01a.885.885,0,0,0,0-1.77h-.06v-2.29a1.49183,1.49183,0,0,0-1.03-1.42l-1.92-.64h3.01a.885.885,0,0,0,0-1.77h-.06v-2.29a1.50431,1.50431,0,0,0-1.03-1.43l-1.92-.63995h3.01a.885.885,0,0,0,0-1.77h-.06v-1.01a1.52366,1.52366,0,0,0-1.53-1.53h-2.95a1.52367,1.52367,0,0,0-1.53,1.53v1.01h-.06006a.885.885,0,0,0,0,1.77h.06006v4.36h-.06006a.885.885,0,0,0,0,1.77h.06006v4.35h-.06006a.885.885,0,0,0,0,1.77h.06006v4.36h-.02a.91688.91688,0,0,0-.77.4.85321.85321,0,0,0-.13.31.87638.87638,0,0,0,.53.99006.72451.72451,0,0,0,.33.06994h.06006v1.19c.91,2.88,1.9,5.76,3,8.64,9.45,24.78,32.42,32.4,40.78,34.4h4.88c7.19-1.72,25.22-7.61,36.12-25.02h-.59v-4.58h3.16q1.125-2.27994,2.09-4.79a169.1485,169.1485,0,0,0,7.82-27.65l-.86-28.13h1.06Zm-47.28,85.48h-7.92v-1.77h7.92Zm0-3.25h-7.92v-1.83h7.92Zm0-3.32h-7.92v-1.82h7.92Zm19.02-11.93h-8.8v-4.58h8.8Z" fill="#272343" />
	<path d="M5.92779,22.083c.042,21.46438.73679,52.03234,12.213,82.15271C28.793,132.1889,56.68665,138.30667,61.35867,139.14515c4.67139-.83848,32.56184-6.95625,43.21362-34.90892,11.47722-30.12087,12.172-60.68883,12.21435-82.15321-8.33352-.95532-28.45809-4.31-55.428-15.6634C34.38558,17.773,14.26084,21.1277,5.92779,22.083Z" fill="none" stroke="#eed132" stroke-miterlimit="10" style="isolation:isolate" />
</svg>
